<svg width="42" height="38" viewBox="0 0 42 38" fill="none" xmlns="http://www.w3.org/2000/svg">
<path d="M35.1716 37.0434H6.86657C4.81275 37.0434 3.14945 35.3782 3.14945 33.322V3.39111H38.8887V33.3075C38.8887 35.3782 37.2254 37.0434 35.1716 37.0434Z" fill="#17489B"/>
<path d="M0.349915 23.4504C0.349915 20.9375 2.38703 18.9004 4.89993 18.9004H37.1001C39.613 18.9004 41.6501 20.9375 41.6501 23.4504C41.6501 25.9633 39.613 28.0004 37.1001 28.0004H4.89993C2.38702 28.0004 0.349915 25.9633 0.349915 23.4504Z" fill="url(#paint0_linear_81_511)"/>
<path d="M30.887 30.9565C30.887 32.416 29.7107 33.6114 28.2438 33.6114H14.5297C14.4466 33.6114 14.3497 33.6114 14.2667 33.5975C13.644 33.5419 13.1043 33.2639 12.6891 32.8608C12.6476 32.8191 12.6061 32.7774 12.5646 32.7357C12.5369 32.7079 12.5092 32.6801 12.4815 32.6384C12.4538 32.6106 12.4262 32.5828 12.4123 32.5411C12.3708 32.4994 12.3431 32.4438 12.3155 32.3882C12.2463 32.277 12.1771 32.1519 12.1217 32.0268C12.1079 31.9851 12.094 31.9573 12.0802 31.9156C11.928 31.5403 11.8726 31.1233 11.9141 30.6924L12.0664 29.2051L13.1319 18.5021C13.2565 17.1399 14.4051 16.1113 15.7613 16.1113H27.0537C28.4099 16.1113 29.5447 17.1399 29.6831 18.5021L30.7486 29.2051L30.9009 30.6924C30.8732 30.7897 30.887 30.8731 30.887 30.9565Z" fill="#629CFF"/>
<path d="M30.1862 30.2553C30.1862 31.7148 29.01 32.9102 27.543 32.9102H13.8289C13.7458 32.9102 13.649 32.9102 13.5659 32.8963C12.9432 32.8407 12.4035 32.5627 11.9883 32.1596C11.9468 32.1179 11.9053 32.0762 11.8638 32.0345C11.8361 32.0067 11.8084 31.9789 11.7807 31.9372C11.7531 31.9094 11.7254 31.8816 11.7115 31.8399C11.67 31.7982 11.6424 31.7426 11.6147 31.687C11.5455 31.5758 11.4763 31.4507 11.4209 31.3256C11.4071 31.2839 11.3933 31.2561 11.3794 31.2144C11.2272 30.8391 11.1718 30.4221 11.2133 29.9912L11.3656 28.5039L12.4312 17.8009C12.5557 16.4387 13.7043 15.4102 15.0605 15.4102H26.3529C27.7091 15.4102 28.8439 16.4387 28.9823 17.8009L30.0479 28.5039L30.2001 29.9912C30.1724 30.0885 30.1862 30.1719 30.1862 30.2553Z" fill="#216DEF"/>
<path d="M24.9236 17.6614C24.6328 17.6614 24.3974 17.423 24.3974 17.1285V16.7218C24.3836 14.6602 22.7356 12.9913 20.686 12.9913C18.6503 13.0053 17.0162 14.6602 17.0023 16.7218V17.1285C17.0023 17.423 16.7669 17.6614 16.4761 17.6614C16.1853 17.6614 15.9498 17.423 15.9498 17.1285V16.7218C15.9498 14.0711 18.0825 11.9114 20.6999 11.9114C23.3172 11.9114 25.4499 14.0711 25.4499 16.7218V17.1285C25.4499 17.423 25.2145 17.6614 24.9236 17.6614Z" fill="url(#paint1_linear_81_511)"/>
<path d="M20.7595 19.6188L22.0272 22.1668C22.083 22.2776 22.1805 22.3468 22.3059 22.3607L25.1339 22.7622C25.4404 22.8038 25.5519 23.1777 25.3429 23.3854L23.295 25.3656C23.2114 25.4487 23.1696 25.5733 23.1835 25.6841L23.6711 28.4813C23.7269 28.7721 23.4064 29.0075 23.1417 28.869L20.6202 27.5535C20.5087 27.4981 20.3833 27.4981 20.2858 27.5535L17.7643 28.869C17.4996 29.0075 17.1791 28.7859 17.2349 28.4813L17.7225 25.6841C17.7364 25.5594 17.7085 25.4487 17.611 25.3656L15.5631 23.3854C15.3402 23.1777 15.4656 22.8038 15.7721 22.7622L18.6001 22.3607C18.7255 22.3468 18.823 22.2637 18.8788 22.1668L20.1465 19.6188C20.2301 19.3419 20.6202 19.3419 20.7595 19.6188Z" fill="url(#paint2_linear_81_511)"/>
<path fill-rule="evenodd" clip-rule="evenodd" d="M6.01491 5.21704H12.0004V6.28304C12.0004 7.99465 10.6526 9.39097 9.00042 9.39097C7.34824 9.39097 6.00041 7.99465 6.00041 6.28304V5.21704H6.01491Z" fill="#4D8EFD"/>
<path fill-rule="evenodd" clip-rule="evenodd" d="M18.0147 5.21704H24.0002V6.28304C24.0002 7.99465 22.6524 9.39097 21.0002 9.39097C19.348 9.39097 18.0002 7.99465 18.0002 6.28304V5.21704H18.0147Z" fill="#4D8EFD"/>
<path fill-rule="evenodd" clip-rule="evenodd" d="M30.0145 5.21704H36.0001V6.28304C36.0001 7.99465 34.6522 9.39097 33.0001 9.39097C31.3479 9.39097 30 7.99465 30 6.28304L30.0145 5.21704Z" fill="#4D8EFD"/>
<path fill-rule="evenodd" clip-rule="evenodd" d="M0.0144981 5.21704H6.00002V6.28304C6.00002 7.99465 4.65219 9.39097 3.00001 9.39097C1.34783 9.39097 0 7.99465 0 6.28304L0.0144981 5.21704Z" fill="#CBDEFF"/>
<path fill-rule="evenodd" clip-rule="evenodd" d="M12.0143 5.21704H17.9998V6.28304C17.9998 7.99465 16.652 9.39097 14.9998 9.39097C13.3476 9.39097 11.9998 7.99465 11.9998 6.28304L12.0143 5.21704Z" fill="#CBDEFF"/>
<path fill-rule="evenodd" clip-rule="evenodd" d="M24.0144 5.21704H30V6.28304C30 7.99465 28.6521 9.39097 27 9.39097C25.3478 9.39097 23.9999 7.99465 23.9999 6.28304L24.0144 5.21704Z" fill="#CBDEFF"/>
<path fill-rule="evenodd" clip-rule="evenodd" d="M36.0143 5.21704H41.9998V6.28304C41.9998 7.99465 40.652 9.39097 38.9998 9.39097C37.3476 9.39097 35.9998 7.99465 35.9998 6.28304V5.21704H36.0143Z" fill="#CBDEFF"/>
<path fill-rule="evenodd" clip-rule="evenodd" d="M10.4351 -0.000244141L9.01616 1.71038L6.10445 5.21717H0.000228167L4.38994 1.71038L6.08967 0.356136C6.38527 0.128053 6.74 -0.000244141 7.12428 -0.000244141H10.4351Z" fill="#ADCBFF"/>
<path fill-rule="evenodd" clip-rule="evenodd" d="M18.7825 -0.000244141L18.091 5.21717H11.9999L14.913 -0.000244141H18.7825Z" fill="#ADCBFF"/>
<path fill-rule="evenodd" clip-rule="evenodd" d="M42 5.24978H35.8749L32.9277 1.72107L31.6749 -0.000244141H34.8314C35.2181 -0.000244141 35.575 0.128855 35.8725 0.358364L37.5828 1.72107L42 5.24978Z" fill="#ADCBFF"/>
<path fill-rule="evenodd" clip-rule="evenodd" d="M30.0307 5.24978H23.9658L23.2756 -0.000244141H27.1378L30.0307 5.24978Z" fill="#ADCBFF"/>
<path fill-rule="evenodd" clip-rule="evenodd" d="M14.87 -0.000244141L11.9958 5.21717H6.00043L10.2538 -0.000244141H14.87Z" fill="#216DEF"/>
<path fill-rule="evenodd" clip-rule="evenodd" d="M36.0003 5.21717H29.9905L27.1307 -0.000244141H31.7469L36.0003 5.21717Z" fill="#216DEF"/>
<path fill-rule="evenodd" clip-rule="evenodd" d="M24.0009 5.21717H18.0009L18.6837 -0.000244141H23.3181L24.0009 5.21717Z" fill="#216DEF"/>
<path fill-rule="evenodd" clip-rule="evenodd" d="M35.7689 20.7188C36.1178 20.3698 36.6836 20.3698 37.0326 20.7188L39.1326 22.8188C39.4816 23.1678 39.4816 23.7336 39.1326 24.0825L37.0326 26.1826C36.6836 26.5315 36.1178 26.5315 35.7689 26.1826C35.4199 25.8336 35.4199 25.2678 35.7689 24.9188L37.237 23.4507L35.7689 21.9825C35.4199 21.6336 35.4199 21.0677 35.7689 20.7188Z" fill="white"/>
<path fill-rule="evenodd" clip-rule="evenodd" d="M6.582 20.7188C6.23302 20.3698 5.66721 20.3698 5.31823 20.7188L3.21822 22.8188C2.86924 23.1678 2.86924 23.7336 3.21822 24.0825L5.31823 26.1826C5.66721 26.5315 6.23302 26.5315 6.582 26.1826C6.93098 25.8336 6.93098 25.2678 6.582 24.9188L5.11387 23.4507L6.582 21.9825C6.93098 21.6336 6.93098 21.0677 6.582 20.7188Z" fill="white"/>
<defs>
<linearGradient id="paint0_linear_81_511" x1="0.349915" y1="23.4504" x2="41.6501" y2="23.4504" gradientUnits="userSpaceOnUse">
<stop stop-color="#1E59BD"/>
<stop offset="0.175847" stop-color="#17489B"/>
<stop offset="0.838983" stop-color="#17489B"/>
<stop offset="1" stop-color="#1E59BD"/>
</linearGradient>
<linearGradient id="paint1_linear_81_511" x1="20.7055" y1="11.9159" x2="20.7055" y2="17.6569" gradientUnits="userSpaceOnUse">
<stop stop-color="white"/>
<stop offset="1" stop-color="#CADEFF"/>
</linearGradient>
<linearGradient id="paint2_linear_81_511" x1="20.4267" y1="19.4121" x2="20.4267" y2="28.9135" gradientUnits="userSpaceOnUse">
<stop stop-color="white"/>
<stop offset="1" stop-color="#C8DCFF"/>
</linearGradient>
</defs>
</svg>
